PathFileType	4	(X/Y/Z)	 s07c0303.trc
DataRate	CameraRate	NumFrames	NumMarkers	Units	OrigDataRate	OrigDataStartFrame	OrigNumFrames
200	200	4	48	mm	200	501	2000
Frame#	Time	racr			lacr			c7			jug			rlel			rdr			llel			ldr			s2			lic			ric			lasi			rasi			rpsi			lpsi			rgt			lgt			rth1			rth2			rth3			rth4			rlfc			rmfc			rsh1			rsh2			rsh3			rsh4			rlmal			rcal			rtoe			rmt5			lth1			lth2			lth4			lth3			llfc			lmfc			lsh1			lsh2			lsh3			lsh4			llmal			lcal			ltoe			lmt5			SBIKE			LBIKE			RBIKE			
		X1	Y1	Z1	X2	Y2	Z2	X3	Y3	Z3	X4	Y4	Z4	X5	Y5	Z5	X6	Y6	Z6	X7	Y7	Z7	X8	Y8	Z8	X9	Y9	Z9	X10	Y10	Z10	X11	Y11	Z11	X12	Y12	Z12	X13	Y13	Z13	X14	Y14	Z14	X15	Y15	Z15	X16	Y16	Z16	X17	Y17	Z17	X18	Y18	Z18	X19	Y19	Z19	X20	Y20	Z20	X21	Y21	Z21	X22	Y22	Z22	X23	Y23	Z23	X24	Y24	Z24	X25	Y25	Z25	X26	Y26	Z26	X27	Y27	Z27	X28	Y28	Z28	X29	Y29	Z29	X30	Y30	Z30	X31	Y31	Z31	X32	Y32	Z32	X33	Y33	Z33	X34	Y34	Z34	X35	Y35	Z35	X36	Y36	Z36	X37	Y37	Z37	X38	Y38	Z38	X39	Y39	Z39	X40	Y40	Z40	X41	Y41	Z41	X42	Y42	Z42	X43	Y43	Z43	X44	Y44	Z44	X45	Y45	Z45	X46	Y46	Z46	X47	Y47	Z47	X48	Y48	Z48	
501	2.5050	670.636421	1401.644656	26.613031	741.301419	1400.137053	-264.447756	696.897989	1451.642914	-123.048178	631.522699	1319.040710	-134.500895	491.001156	1085.808826	34.763985	719.497567	924.867893	-49.959172	580.351960	1147.291401	-464.755192	732.460067	909.373702	-398.197629	111.966516	1331.453476	-292.342460	307.292186	1323.893483	-392.735302	242.135932	1339.895048	-110.720122	306.041879	1243.036836	-361.473375	256.971067	1293.209654	-121.437579	136.282785	1369.471342	-240.418979	175.537378	1361.561688	-341.626742	165.440465	1250.923910	-72.311989	214.147021	1181.972142	-426.532749	279.191869	1139.723034	-41.332642	351.238028	1089.371245	-35.790471	388.977794	1013.483339	-25.335828	378.422824	1110.991351	-49.756749	467.217274	890.207857	-44.010108	470.914274	878.797180	-149.523633	387.714532	767.981115	-31.395230	355.883792	688.077539	-58.047798	289.960163	631.773303	-59.933530	372.017372	685.515153	-94.339992	205.004664	522.806892	-72.239172	131.588001	488.804982	-103.578051	419.963701	450.849660	-113.611626	340.337242	418.947769	-43.987525	236.926811	1063.659797	-416.991370	275.137510	986.889780	-397.746948	306.536528	995.235252	-381.518960	270.744480	898.663987	-387.988372	279.499069	723.179236	-354.164989	244.379191	714.330358	-265.242217	191.223727	606.042686	-388.422384	157.915031	527.820112	-373.175271	92.064549	468.734361	-388.619876	155.428686	530.284238	-330.966814	4.185579	361.836955	-393.503556	-75.700402	356.435196	-360.979075	161.032387	188.347060	-352.357577	82.152795	211.558997	-412.396526	-257.555493	964.393277	-232.176075	-76.319186	83.528127	-436.346070	-82.420235	79.465136	-38.967574	
502	2.5100	669.327808	1396.119560	27.929712	741.260142	1397.091889	-262.721342	696.358838	1447.287086	-121.565224	631.686977	1314.584321	-134.119810	486.741921	1081.539295	32.143022	719.003725	925.273230	-50.607935	579.890776	1146.857208	-465.816900	731.977606	909.391163	-398.579564	111.240824	1329.647079	-292.654661	306.440171	1321.979608	-393.594542	241.787908	1336.856491	-111.240683	305.020334	1241.020796	-362.699452	256.627104	1290.540692	-122.282807	135.604796	1367.551224	-240.420910	174.819438	1359.755585	-342.056494	164.796838	1248.015279	-73.147254	213.252091	1180.265965	-427.737273	277.472508	1136.029013	-41.928294	348.635194	1084.698150	-36.924459	386.205799	1008.908791	-26.153589	376.575714	1106.893262	-49.711161	464.879743	886.180138	-45.038988	468.962211	874.642956	-149.961180	386.296214	763.243137	-32.258240	355.753734	682.701515	-58.657168	290.597558	625.630729	-60.952765	372.772384	680.249419	-94.786191	207.484025	515.283894	-73.300139	134.862892	480.101781	-104.629357	423.667853	446.079692	-113.555461	344.124667	413.284447	-44.184383	237.082273	1061.727816	-417.869523	276.721709	985.628474	-399.085765	308.331756	994.494446	-383.566021	273.974735	897.381012	-388.918490	285.036701	722.032113	-353.412213	250.059404	713.519140	-264.066879	194.329991	606.804630	-387.636021	158.879993	529.471104	-372.534334	91.379557	472.208033	-388.156824	156.365658	531.895881	-330.368558	0.618345	367.930652	-393.679818	-79.423036	363.052112	-361.460767	156.405991	193.839113	-352.358940	77.786144	217.283788	-412.534329	-257.568018	964.427296	-232.150725	-76.370335	83.399076	-436.306365	-82.484715	79.523358	-39.030903	
503	2.5150	667.948804	1390.811309	29.221156	741.182964	1394.892516	-261.092407	695.727365	1443.112353	-120.111960	631.682290	1310.583021	-133.772272	483.040552	1077.165610	29.216953	718.843752	925.607074	-51.075028	579.723783	1146.552675	-466.924826	731.590297	909.450825	-398.896811	110.566930	1327.683339	-292.998292	305.695467	1319.966426	-394.336407	241.524772	1333.651637	-111.455477	304.074944	1238.883130	-363.914185	256.417932	1287.457969	-122.839459	135.233200	1365.418879	-240.580309	173.967028	1357.822398	-342.213145	164.187392	1244.874013	-73.924804	212.253550	1178.476327	-428.761170	275.902116	1131.913707	-43.030851	346.841057	1080.570982	-37.307363	383.736442	1004.068923	-27.385683	374.971115	1102.553557	-50.230413	462.915965	881.822598	-46.298444	466.984987	870.210471	-150.642208	385.078354	758.146847	-33.561123	355.839890	677.221081	-59.648948	291.364509	619.201136	-62.203413	372.676986	674.592694	-95.637673	210.453217	507.305157	-74.720716	137.902071	471.262707	-105.391804	427.158643	441.179357	-113.518110	347.781084	407.591757	-44.283623	237.126446	1059.756409	-418.931670	278.266165	984.259783	-400.556636	309.984364	993.701358	-385.643672	277.076628	895.990063	-389.991162	290.966423	720.805337	-352.568361	256.132031	712.608544	-262.913480	197.785474	607.617948	-386.885193	160.221538	531.337834	-371.942131	91.247061	476.022084	-387.835407	157.823185	533.796098	-329.770198	-2.256054	374.229559	-393.911715	-82.514792	369.798395	-361.941213	152.248204	199.441938	-352.120379	73.887839	223.091802	-412.556493	-257.546068	964.590187	-231.815318	-76.379076	83.461585	-436.310540	-82.478605	79.548307	-39.074121	
504	2.5200	666.691315	1385.391308	30.446054	741.118523	1392.627746	-259.821059	695.025942	1439.246522	-118.668641	631.717200	1306.772864	-133.440318	479.861219	1072.784721	26.092409	718.960973	925.556984	-51.529843	579.803981	1146.377236	-468.025871	731.283304	909.538864	-399.147091	109.814641	1325.527911	-293.092095	304.956370	1317.778839	-394.928143	241.252690	1330.446406	-111.823285	303.129081	1236.654278	-364.946258	256.057853	1284.480297	-123.485514	134.833025	1363.001685	-240.737442	173.328141	1355.893888	-342.479405	163.625457	1241.622374	-74.615724	211.218443	1176.412284	-429.691494	274.530419	1127.847445	-43.563246	345.212767	1075.938748	-38.379375	381.628070	999.159402	-28.988031	373.148723	1098.274615	-49.626474	460.330046	877.340245	-47.968511	465.043105	865.637878	-151.884454	384.099589	752.764403	-35.152248	355.922340	671.314566	-60.388315	292.323167	612.522069	-63.685484	372.977893	668.792736	-96.915671	212.723167	499.708802	-75.659017	140.789432	462.418514	-106.055490	430.460182	435.906437	-113.432333	351.201497	401.603192	-44.388891	237.156656	1058.020758	-420.034296	279.758945	982.936495	-402.099988	311.493129	992.922545	-387.638965	280.155369	894.699869	-391.313658	297.153619	719.737651	-351.944965	262.733400	711.820326	-261.743098	201.566938	608.559794	-386.276032	162.095128	533.296005	-371.299151	91.694547	479.691461	-387.372859	159.834208	535.732630	-329.164861	-4.493685	380.702713	-394.200932	-84.991824	377.021507	-362.382370	148.331910	204.870343	-351.959943	70.346510	229.053616	-412.432750	-257.505578	964.600367	-231.116046	-76.395883	83.525778	-436.262707	-82.449550	79.505363	-39.016278	
